<svg width="75" height="70" xmlns="http://www.w3.org/2000/svg">
 <!-- Created with Method Draw - http://github.com/duopixel/Method-Draw/ -->

 <g>
  <title>background</title>
  <rect x="-1" y="-1" width="77" height="72" id="canvas_background" fill="#fff"/>
  <g id="canvasGrid" display="none">
   <rect id="svg_1" width="372" height="79" x="1" y="1" stroke-width="0" fill="url(#gridpattern)"/>
  </g>
 </g>
 <g>
  <title>Layer 1</title>
  <rect fill="#9e44ff" stroke-width="0" x="1" y="1" width="50.58814" height="51" id="svg_3" stroke="#000"/>
  <rect fill="#ffffff" stroke-width="0" x="17.47056" y="11.58821" width="50.58814" height="51" id="svg_7" stroke="#ffffff"/>
  <rect fill="#9e44ff" stroke-width="0" x="23.38964" y="17.61572" width="50.58814" height="51" id="svg_8" stroke="#000"/>
  <path fill="#ffffff" stroke="#000" stroke-width="0" stroke-opacity="null" d="m29.30967,61.89271c-2.52228,-0.40943 -4.2619,-3.56962 -3.43985,-6.35031c0.50813,-2.69575 3.10883,-3.43319 4.83327,-4.85588c5.47885,-3.71241 10.98892,-7.36425 16.48476,-11.04366c0.28869,-1.79481 -0.87631,-2.91289 -2.12082,-3.75659c-2.49017,-2.25866 -2.35447,-6.76023 -0.24568,-9.27472c2.47149,-3.31541 7.67187,-2.27319 9.21405,1.64833c1.496,1.74285 -0.02844,6.01177 -2.12679,3.95694c-0.21888,-2.33437 -1.96564,-5.07162 -4.27065,-3.58901c-2.40493,1.57772 -0.9839,5.25527 1.23737,5.99601c1.49937,1.14674 1.2995,3.27353 1.37905,5.06647c6.58628,4.49067 13.25565,8.82758 19.75166,13.48694c2.58619,2.29337 1.5226,7.81334 -1.73427,8.56139c-2.46912,0.40592 -5.00236,0.12001 -7.49623,0.23101c-10.48812,0.00925 -20.97898,0.09078 -31.46589,-0.07691l0,0l0.00002,-0.00001zm38.16042,-3.79375c1.8883,-2.14893 -1.64324,-3.30469 -2.80652,-4.35732c-5.35731,-3.59244 -10.69748,-7.22279 -16.11795,-10.68919c-6.35141,4.11932 -12.68843,8.27977 -18.92164,12.62866c-1.31984,0.6033 -0.40123,3.0152 0.82589,2.64377c12.06968,-0.02962 24.14053,0.07269 36.20929,-0.07461c0.26722,-0.03903 0.56829,0.01391 0.81094,-0.15131l0,0l-0.00001,0z" id="svg_18"/>
 </g>
</svg>